HIERARCHY
ROOT Hips
{
  OFFSET 49.8178 54.5723 -9.41887
  CHANNELS 6 Xposition Yposition Zposition Zrotation Xrotation Yrotation
  JOINT spine
  {
    OFFSET 0 5.95438 0.342407
    CHANNELS 3 Zrotation Xrotation Yrotation
    JOINT spine1
    {
      OFFSET 0 8.85602 0
      CHANNELS 3 Zrotation Xrotation Yrotation
      JOINT spine2
      {
        OFFSET 0 8.48567 0
        CHANNELS 3 Zrotation Xrotation Yrotation
        JOINT Neck
        {
          OFFSET 0 21.7863 1.0387
          CHANNELS 3 Zrotation Xrotation Yrotation
          JOINT Head
          {
            OFFSET 0 6.5822 0
            CHANNELS 3 Zrotation Xrotation Yrotation
            End Site
            {
              OFFSET 0 15.9326 -5.25436
            }
          }
        }
        JOINT RightShoulder
        {
          OFFSET -3.57307 9.16386 -0.497525
          CHANNELS 3 Zrotation Xrotation Yrotation
          JOINT RightArm
          {
            OFFSET 0 12.0192 0
            CHANNELS 3 Zrotation Xrotation Yrotation
            JOINT RightArmRoll
            {
              OFFSET 0 6.06755 0
              CHANNELS 3 Zrotation Xrotation Yrotation
              JOINT RightForeArm
              {
                OFFSET 0 17.6726 0
                CHANNELS 3 Zrotation Xrotation Yrotation
                JOINT RightForeArmRoll
                {
                  OFFSET 0 6.80873 0
                  CHANNELS 3 Zrotation Xrotation Yrotation
                  JOINT RightHand
                  {
                    OFFSET 0 13.6636 0
                    CHANNELS 3 Zrotation Xrotation Yrotation
                    End Site
                    {
                      OFFSET 0 0 0
                    }
                  }
                }
              }
            }
          }
        }
        JOINT LeftShoulder
        {
          OFFSET 3.57307 9.16386 -0.497525
          CHANNELS 3 Zrotation Xrotation Yrotation
          JOINT LeftArm
          {
            OFFSET 0 12.0192 0
            CHANNELS 3 Zrotation Xrotation Yrotation
            JOINT LeftArmRoll
            {
              OFFSET 0 6.06755 0
              CHANNELS 3 Zrotation Xrotation Yrotation
              JOINT LeftForeArm
              {
                OFFSET 0 17.6726 0
                CHANNELS 3 Zrotation Xrotation Yrotation
                JOINT LeftForeArmRoll
                {
                  OFFSET 0 6.80872 0
                  CHANNELS 3 Zrotation Xrotation Yrotation
                  JOINT LeftHand
                  {
                    OFFSET 0 13.6636 0
                    CHANNELS 3 Zrotation Xrotation Yrotation
                    End Site
                    {
                      OFFSET 0 0 0
                    }
                  }
                }
              }
            }
          }
        }
      }
    }
  }
  JOINT RightUpLeg
  {
    OFFSET -5.27774 -0.967797 -0.811858
    CHANNELS 3 Zrotation Xrotation Yrotation
    JOINT RightUpLegRoll
    {
      OFFSET 0 16.0214 0
      CHANNELS 3 Zrotation Xrotation Yrotation
      JOINT RightLeg
      {
        OFFSET 0 -19.8401 0
        CHANNELS 3 Zrotation Xrotation Yrotation
        JOINT RightLegRoll
        {
          OFFSET 0 19.905 0
          CHANNELS 3 Zrotation Xrotation Yrotation
          JOINT RightFoot
          {
            OFFSET 0 16.5675 0
            CHANNELS 3 Zrotation Xrotation Yrotation
            JOINT RightToeBase
            {
              OFFSET 0 13.8496 0
              CHANNELS 3 Zrotation Xrotation Yrotation
              End Site
              {
                OFFSET 0.00587034 6.70727 -0.773117
              }
            }
          }
        }
      }
    }
  }
  JOINT LeftUpLeg
  {
    OFFSET 5.27774 -0.967797 -0.811858
    CHANNELS 3 Zrotation Xrotation Yrotation
    JOINT LeftUpLegRoll
    {
      OFFSET 0 16.0215 0
      CHANNELS 3 Zrotation Xrotation Yrotation
      JOINT LeftLeg
      {
        OFFSET 0 19.84 0
        CHANNELS 3 Zrotation Xrotation Yrotation
        JOINT LeftLegRoll
        {
          OFFSET 0 20.089 0
          CHANNELS 3 Zrotation Xrotation Yrotation
          JOINT LeftFoot
          {
            OFFSET 0 16.3835 0
            CHANNELS 3 Zrotation Xrotation Yrotation
            JOINT LeftToeBase
            {
              OFFSET 0 13.8496 0
              CHANNELS 3 Zrotation Xrotation Yrotation
              End Site
              {
                OFFSET -0.0263083 6.70728 -0.773116
              }
            }
          }
        }
      }
    }
  }
}
MOTION
Frames: 9
Frame Time: 0.00208333
52.117 84.7466 27.4863 1.76188 -7.52754 0.532349 0.0458483 -0.954424 0.0626115 0.0921546 2.09435 0.121296 0.0907971 3.73942 0.120439 -0.899365 44.2464 13.22 -18.7074 15.8503 13.9347 75.711 0.678897 -1.57563 101.312 13.6888 -1.53126 1.22325e-008 2.77738e-006 -1.05894e-006 -3.65047 -0.0278165 -1.99262 -3.37581e-006 -2.11473e-006 -3.01161 8.03007 -4.95137 0.697635 -73.3618 -3.53569 3.24721 -108.41 17.0408 8.09285 -8.44835e-015 6.36111e-015 -2.38542e-015 3.63944 -0.0263053 1.99246 4.10384e-006 1.37854e-006 3.01161 -8.0301 -4.95139 -0.697635 174.856 -1.22169 5.17716 180 7.01522e-015 178.82 177.585 9.20011 179.869 -2.45432e-006 2.78366e-007 0.137306 -19.2108 68.5855 20.0377 8.13649 25.2327 -3.48773 -179.553 -3.30455 0.201737 4.54188e-006 -4.6773e-006 -1.16212 -1.88891 -7.22992 0.0662016 4.84646e-006 3.1308e-006 -0.0771724 18.6112 67.9294 -19.4339 -8.13649 25.2327 3.48774 
52.1176 84.7451 27.4913 1.7652 -7.53918 0.532832 0.044697 -0.952007 0.0625911 0.0898331 2.09955 0.121375 0.0884746 3.74462 0.120586 -0.935836 44.3159 13.1936 -18.6364 15.8258 13.8774 75.7065 0.690887 -1.5699 101.311 13.7018 -1.53431 1.22325e-008 2.77738e-006 -1.05894e-006 -3.65047 -0.0278165 -1.99262 -3.37581e-006 -2.11473e-006 -3.01161 8.03007 -4.95137 0.697635 -73.3852 -3.53953 3.25066 -108.391 17.0542 8.08026 3.57812e-015 -3.18055e-015 1.59028e-015 3.63944 -0.0263053 1.99246 4.10384e-006 1.37854e-006 3.01161 -8.0301 -4.95139 -0.697635 174.853 -1.23697 5.17977 180 7.01522e-015 178.82 177.584 9.19086 179.869 -2.45432e-006 2.78366e-007 0.137306 -19.2068 68.581 20.0334 8.13649 25.2327 -3.48773 -179.557 -3.3121 0.204268 4.54188e-006 -4.6773e-006 -1.16212 -1.88695 -7.24142 0.0670038 4.84647e-006 3.1308e-006 -0.0777164 18.6203 67.9404 -19.4437 -8.13649 25.2327 3.48774 
52.1197 84.7543 27.484 1.76875 -7.55124 0.532875 0.0434457 -0.949577 0.0625691 0.0873039 2.1048 0.121463 0.0859443 3.74987 0.120746 -0.970831 44.3872 13.1668 -18.5672 15.7985 13.8202 75.7031 0.703759 -1.5639 101.308 13.7145 -1.53632 1.22325e-008 2.77738e-006 -1.05894e-006 -3.65047 -0.0278165 -1.99262 -3.37581e-006 -2.11473e-006 -3.01161 8.03007 -4.95137 0.697635 -73.4084 -3.54347 3.25415 -108.372 17.0674 8.06742 9.54166e-015 3.18055e-015 3.18055e-015 3.63944 -0.0263053 1.99246 4.10384e-006 1.37854e-006 3.01161 -8.0301 -4.95139 -0.697635 174.85 -1.25293 5.18249 180 7.01522e-015 178.82 177.584 9.18108 179.87 -2.45432e-006 2.78366e-007 0.137306 -19.2027 68.5764 20.029 8.13649 25.2327 -3.48773 -179.562 -3.32044 0.206913 4.54188e-006 -4.6773e-006 -1.16212 -1.885 -7.25258 0.0678419 4.84646e-006 3.1308e-006 -0.0782752 18.6298 67.9518 -19.4539 -8.13649 25.2327 3.48774 
52.1221 84.7532 27.4817 1.77245 -7.56359 0.532609 0.0421243 -0.947139 0.0625459 0.0846293 2.11008 0.121555 0.0832686 3.75515 0.120916 -1.00476 44.4598 13.1395 -18.4992 15.7691 13.7631 75.7003 0.717247 -1.55771 101.305 13.727 -1.5376 1.22325e-008 2.77738e-006 -1.05894e-006 -3.65047 -0.0278165 -1.99262 -3.37581e-006 -2.11473e-006 -3.01161 8.03007 -4.95137 0.697635 -73.4317 -3.54748 3.25767 -108.353 17.0804 8.05439 -1.10325e-014 3.18055e-015 -2.78299e-015 3.63944 -0.0263053 1.99246 4.10384e-006 1.37854e-006 3.01161 -8.0301 -4.95139 -0.697635 174.847 -1.26936 5.18528 180 7.01522e-015 178.82 177.583 9.17089 179.87 -2.45432e-006 2.78366e-007 0.137306 -19.1985 68.5716 20.0245 8.13649 25.2327 -3.48773 -179.567 -3.32935 0.209639 4.54188e-006 -4.6773e-006 -1.16212 -1.88304 -7.2635 0.0687051 4.84646e-006 3.1308e-006 -0.0788443 18.6395 67.9635 -19.4644 -8.13649 25.2327 3.48774 
52.1263 84.7544 27.4796 1.77624 -7.57611 0.532168 0.0407629 -0.944695 0.0625222 0.0818717 2.11537 0.121651 0.0805096 3.76045 0.121091 -1.03804 44.5331 13.1121 -18.432 15.7387 13.7059 75.698 0.731088 -1.55142 101.302 13.7393 -1.53847 1.22325e-008 2.77738e-006 -1.05894e-006 -3.65047 -0.0278165 -1.99262 -3.37581e-006 -2.11473e-006 -3.01161 8.03007 -4.95137 0.697635 -73.4549 -3.55153 3.26121 -108.334 17.0933 8.04126 1.49089e-015 0 3.97569e-016 3.63944 -0.0263053 1.99246 4.10384e-006 1.37854e-006 3.01161 -8.0301 -4.95139 -0.697635 174.843 -1.28606 5.18812 180 7.01522e-015 178.82 177.582 9.16048 179.871 -2.45432e-006 2.78366e-007 0.137306 -19.1942 68.5668 20.0199 8.13649 25.2327 -3.48773 -179.571 -3.33858 0.212411 4.54188e-006 -4.6773e-006 -1.16212 -1.88108 -7.27428 0.0695827 4.84646e-006 3.1308e-006 -0.0794193 18.6495 67.9754 -19.4752 -8.13649 25.2327 3.48774 
52.1252 84.7539 27.4838 1.78006 -7.58867 0.531682 0.0393914 -0.94225 0.0624982 0.0790933 2.12068 0.121748 0.0777299 3.76575 0.121268 -1.07109 44.6066 13.0845 -18.365 15.7079 13.6488 75.6958 0.745017 -1.54511 101.298 13.7517 -1.53923 1.22325e-008 2.77738e-006 -1.05894e-006 -3.65047 -0.0278165 -1.99262 -3.37581e-006 -2.11473e-006 -3.01161 8.03007 -4.95137 0.697635 -73.4781 -3.55558 3.26475 -108.314 17.1061 8.0281 -1.26228e-014 0 -4.37326e-015 3.63944 -0.0263053 1.99246 4.10384e-006 1.37854e-006 3.01161 -8.0301 -4.95139 -0.697635 174.839 -1.30283 5.19097 180 7.01522e-015 178.82 177.582 9.15003 179.871 -2.45432e-006 2.78366e-007 0.137306 -19.1899 68.562 20.0153 8.13649 25.2327 -3.48773 -179.576 -3.34789 0.215194 4.54188e-006 -4.6773e-006 -1.16212 -1.87912 -7.28503 0.0704639 4.84647e-006 3.1308e-006 -0.0799958 18.6594 67.9874 -19.4859 -8.13649 25.2327 3.48774 
52.1216 84.7663 27.4826 1.78383 -7.60114 0.531284 0.03804 -0.939808 0.0624746 0.0763564 2.12597 0.121844 0.0749916 3.77105 0.121442 -1.10431 44.6797 13.057 -18.2977 15.6776 13.5917 75.6934 0.758771 -1.53884 101.295 13.7641 -1.5402 1.22325e-008 2.77738e-006 -1.05894e-006 -3.65047 -0.0278165 -1.99262 -3.37581e-006 -2.11473e-006 -3.01161 8.03007 -4.95137 0.697635 -73.5013 -3.55962 3.26829 -108.295 17.119 8.01499 -2.5842e-015 6.36111e-015 -7.95139e-016 3.63944 -0.0263053 1.99246 4.10384e-006 1.37854e-006 3.01161 -8.0301 -4.95139 -0.697635 174.836 -1.31946 5.1938 180 7.01522e-015 178.82 177.581 9.1397 179.872 -2.45432e-006 2.78366e-007 0.137306 -19.1857 68.5572 20.0107 8.13649 25.2327 -3.48773 -179.581 -3.35704 0.217954 4.54188e-006 -4.6773e-006 -1.16212 -1.87716 -7.29584 0.0713379 4.84647e-006 3.1308e-006 -0.0805693 18.6693 67.9992 -19.4966 -8.13649 25.2327 3.48774 
52.1139 84.7695 27.4967 1.78748 -7.61341 0.531106 0.0367387 -0.937372 0.0624518 0.0737233 2.13124 0.121935 0.0723573 3.77632 0.121609 -1.13814 44.752 13.0296 -18.2296 15.6487 13.5346 75.6905 0.772083 -1.53271 101.292 13.7767 -1.5417 1.22325e-008 2.77738e-006 -1.05894e-006 -3.65047 -0.0278165 -1.99262 -3.37581e-006 -2.11473e-006 -3.01161 8.03007 -4.95137 0.697635 -73.5246 -3.56361 3.2718 -108.276 17.1321 8.00201 2.88238e-015 -3.18055e-015 3.97569e-016 3.63944 -0.0263053 1.99246 4.10384e-006 1.37854e-006 3.01161 -8.0301 -4.95139 -0.697635 174.833 -1.33576 5.19657 180 7.01522e-015 178.82 177.58 9.12962 179.872 -2.45432e-006 2.78366e-007 0.137306 -19.1815 68.5525 20.0062 8.13649 25.2327 -3.48773 -179.586 -3.36579 0.220657 4.54188e-006 -4.6773e-006 -1.16212 -1.8752 -7.30683 0.0721942 4.84646e-006 3.1308e-006 -0.0811355 18.6791 68.0109 -19.5071 -8.13649 25.2327 3.48774 
52.1226 84.7622 27.4849 1.79096 -7.62535 0.531281 0.0355174 -0.934946 0.0624303 0.0712563 2.13648 0.12202 0.0698892 3.78155 0.121765 -1.173 44.8228 13.0026 -18.1603 15.6221 13.4775 75.6867 0.784691 -1.5268 101.29 13.7894 -1.54402 1.22325e-008 2.77738e-006 -1.05894e-006 -3.65047 -0.0278165 -1.99262 -3.37581e-006 -2.11473e-006 -3.01161 8.03007 -4.95137 0.697635 -73.5479 -3.56752 3.27528 -108.257 17.1453 7.98924 7.95139e-016 -6.36111e-015 -0 3.63944 -0.0263053 1.99246 4.10384e-006 1.37854e-006 3.01161 -8.0301 -4.95139 -0.697635 174.829 -1.35151 5.19926 180 7.01522e-015 178.82 177.58 9.11999 179.873 -2.45432e-006 2.78366e-007 0.137306 -19.1774 68.5479 20.0019 8.13649 25.2327 -3.48773 -179.59 -3.3739 0.223269 4.54188e-006 -4.6773e-006 -1.16212 -1.87324 -7.31809 0.0730218 4.84647e-006 3.1308e-006 -0.0816898 18.6885 68.0221 -19.5173 -8.13649 25.2327 3.48774 
